<svg width="19" height="18" fill="none" xmlns="http://www.w3.org/2000/svg"><g id="little-facebook-logo-svgrepo-com 1" clip-path="url('#clip0_7_193')"><path id="Vector" d="M12.775 0H11.8a4.916 4.916 0 0 0-4.91 4.91v2.072H5.225a.31.31 0 0 0-.31.31v2.483c0 .172.139.31.31.31H6.89v7.605c0 .171.14.31.31.31h2.483a.31.31 0 0 0 .31-.31v-7.604h2.47a.31.31 0 0 0 .31-.31V7.292a.31.31 0 0 0-.31-.31h-2.47V4.91c0-.996.811-1.807 1.807-1.807h.975a.31.31 0 0 0 .31-.31V.31a.31.31 0 0 0-.31-.31Z" fill="#344265"/></g><defs><clipPath id="clip0_7_193"><path fill="#fff" transform="translate(.002)" d="M0 0h18v18H0z"/></clipPath></defs></svg>