<svg width="19" height="18" fill="none" xmlns="http://www.w3.org/2000/svg"><g id="instagram"><path id="instagram_2" d="M9.003 0C6.558 0 6.252.011 5.292.055 4.334.099 3.679.25 3.107.473A4.407 4.407 0 0 0 1.513 1.51c-.5.5-.808 1.002-1.039 1.594C.251 3.677.1 4.33.056 5.289.013 6.25.002 6.556.002 9c0 2.445.01 2.75.054 3.71.044.959.196 1.613.418 2.185a4.41 4.41 0 0 0 1.038 1.594c.5.5 1.003.81 1.594 1.039.573.223 1.227.374 2.185.418C6.25 17.99 6.557 18 9 18c2.445 0 2.75-.01 3.71-.054.959-.044 1.614-.195 2.186-.418a4.404 4.404 0 0 0 1.594-1.039c.5-.5.808-1.002 1.038-1.594.222-.572.373-1.227.419-2.184.043-.96.054-1.266.054-3.71 0-2.445-.011-2.752-.054-3.712-.046-.958-.197-1.612-.419-2.184a4.417 4.417 0 0 0-1.038-1.594A4.4 4.4 0 0 0 14.897.473C14.323.25 13.669.099 12.71.055 11.75.01 11.445 0 9 0h.003Zm-.808 1.622h.808c2.403 0 2.688.009 3.636.052.878.04 1.354.187 1.671.31.42.163.72.358 1.035.673.315.315.51.615.673 1.035.123.317.27.793.31 1.67.043.95.053 1.234.053 3.636s-.01 2.687-.053 3.636c-.04.877-.187 1.354-.31 1.67-.163.42-.358.72-.673 1.034-.315.316-.614.51-1.035.674-.316.123-.793.27-1.67.31-.95.043-1.234.052-3.637.052-2.404 0-2.688-.01-3.637-.052-.878-.04-1.354-.187-1.671-.31a2.789 2.789 0 0 1-1.035-.674 2.79 2.79 0 0 1-.674-1.034c-.123-.317-.27-.793-.31-1.67-.043-.95-.052-1.235-.052-3.638 0-2.403.01-2.687.052-3.636.04-.877.187-1.353.31-1.67.163-.42.359-.72.674-1.036.315-.315.615-.51 1.035-.673.317-.124.793-.27 1.67-.31.831-.038 1.153-.05 2.83-.051v.002Zm5.612 1.495a1.08 1.08 0 1 0 0 2.16 1.08 1.08 0 0 0 0-2.16ZM9.003 4.378a4.622 4.622 0 1 0 0 9.245 4.622 4.622 0 0 0 0-9.245Zm0 1.622a3 3 0 1 1 0 6 3 3 0 0 1 0-6Z" fill="#344265"/></g></svg>