<svg width="160" height="30" fill="none" xmlns="http://www.w3.org/2000/svg"><path d="m14.145 1.23-.892 2.037c-.46.028-.92.086-1.375.174l-1.364-1.762-1.47.5-.008 2.241c-.623.32-1.22.707-1.783 1.16l-2.078-.936L4.11 5.775l1.064 2.018c-.343.489-.64 1-.892 1.529L2 9.384l-.463 1.481 1.842 1.357c-.088.55-.131 1.105-.134 1.661L1.201 14.92l.214 1.538 2.245.44c.134.468.3.927.498 1.377l-1.48 1.836.827 1.315 2.3-.538a10.875 10.875 0 0 0 1.49 1.444l-.447 2.304 1.344.776 1.756-1.529c.504.203 1.022.365 1.547.487l.574 2.25 1.547.127.93-2.122a10.746 10.746 0 0 0 1.913-.29l1.478 1.713 1.441-.577-.042-.868-3.364-2.55a8.382 8.382 0 0 1-2.992.2 8.296 8.296 0 0 1-5.052-2.5A8.34 8.34 0 0 1 8.13 7.95a8.37 8.37 0 0 1 5.742-2.364 8.274 8.274 0 0 1 6.06 2.531c2.693 2.784 3.06 6.972 1.147 10.142l1.873 1.421c.235-.368.445-.747.63-1.135l2.265-.062L26.31 17l-1.829-1.347c.089-.554.133-1.116.134-1.676l2.032-1.032-.214-1.538-2.243-.44a10.663 10.663 0 0 0-.747-1.882l1.337-1.851-.894-1.27-2.2.64c-.028-.03-.055-.06-.083-.088a10.814 10.814 0 0 0-1.11-1l.422-2.175-1.345-.777L17.9 4.02a10.672 10.672 0 0 0-1.659-.513l-.547-2.15-1.55-.126Zm-3.408 8.995a4.098 4.098 0 0 0-1.758.426l2.65 2.01c.801.609 1.029 1.764.414 2.575-.615.812-1.796.934-2.61.317l-2.647-2.009c-.271 1.453.242 2.992 1.5 3.946a4.053 4.053 0 0 0 3.821.568l.28-.1.236.179 7.921 6.01.237.179-.02.296c-.096 1.322.444 2.673 1.572 3.529 1.258.954 2.88 1.033 4.206.38l-2.647-2.008c-.813-.617-1.013-1.788-.398-2.598.616-.811 1.79-.903 2.591-.295l2.648 2.009c.27-1.453-.24-2.993-1.498-3.946a4.044 4.044 0 0 0-3.807-.588l-.278.099-.236-.18-7.921-6.01-.236-.179.02-.295a4.044 4.044 0 0 0-1.592-3.506 3.955 3.955 0 0 0-2.448-.81Zm2.553 5.288 9.602 7.286-.661.873-9.604-7.288.663-.871Z" fill="#FAFF00"/><path d="M38.398 14h-3.023l3.926-11.636h3.744L46.972 14h-3.023l-2.733-8.705h-.091L38.398 14Zm-.404-4.58h6.319v2.137h-6.319V9.42ZM48.224 14V2.364h2.813v9.352h4.84V14h-7.653Zm9.11 0V2.364h4.807c.87 0 1.623.17 2.255.511a3.581 3.581 0 0 1 1.472 1.415c.345.602.517 1.303.517 2.102 0 .803-.176 1.506-.529 2.108a3.544 3.544 0 0 1-1.494 1.392c-.647.33-1.416.494-2.307.494H59.09V8.17h2.443c.424 0 .778-.073 1.062-.221.288-.148.506-.354.654-.62.147-.268.221-.58.221-.937 0-.36-.074-.67-.221-.932a1.488 1.488 0 0 0-.654-.613c-.288-.144-.642-.216-1.062-.216h-1.387V14h-2.812Zm10.437 0V2.364h2.813v4.67h4.585v-4.67h2.807V14h-2.807V9.324h-4.585V14H67.77Zm14.486 0h-3.023l3.927-11.636h3.744L90.83 14h-3.023l-2.733-8.705h-.09L82.256 14Zm-.403-4.58h6.318v2.137h-6.318V9.42Z" fill="#F8F8F8"/><path d="M37.76 27h-2.455l3.19-9.454h3.042L44.727 27H42.27l-2.22-7.072h-.074L37.76 27Zm-.327-3.72h5.133v1.735h-5.133v-1.736ZM45.745 27v-9.454h3.905c.708 0 1.32.138 1.833.415a2.91 2.91 0 0 1 1.196 1.15c.28.489.42 1.058.42 1.707 0 .653-.143 1.224-.43 1.713a2.88 2.88 0 0 1-1.214 1.131c-.526.268-1.15.402-1.874.402h-2.41v-1.8h1.985c.345 0 .633-.06.864-.18.234-.12.41-.288.53-.504.12-.218.18-.472.18-.761 0-.293-.06-.545-.18-.758a1.208 1.208 0 0 0-.53-.498c-.234-.117-.522-.176-.864-.176H48.03V27h-2.285Zm8.48 0v-9.454h3.906c.708 0 1.319.138 1.833.415a2.91 2.91 0 0 1 1.195 1.15c.28.489.42 1.058.42 1.707 0 .653-.143 1.224-.429 1.713a2.879 2.879 0 0 1-1.214 1.131c-.526.268-1.151.402-1.874.402h-2.41v-1.8h1.985c.345 0 .632-.06.863-.18.234-.12.411-.288.531-.504.12-.218.18-.472.18-.761 0-.293-.06-.545-.18-.758a1.209 1.209 0 0 0-.53-.498c-.235-.117-.523-.176-.864-.176H56.51V27h-2.285Zm8.48 0v-9.454h2.286v7.598h3.933V27h-6.218Zm9.687-9.454V27h-2.285v-9.454h2.285ZM75.872 27h-2.456l3.19-9.454h3.042L82.838 27h-2.456l-2.22-7.072h-.074L75.872 27Zm-.328-3.72h5.134v1.735h-5.134v-1.736Zm16.359-5.735V27h-1.94l-3.762-5.457h-.06V27h-2.285v-9.454h1.967l3.72 5.447h.08v-5.447h2.28Zm10.019 3.426h-2.309a2 2 0 0 0-.189-.642 1.561 1.561 0 0 0-.937-.799 2.14 2.14 0 0 0-.706-.11c-.459 0-.854.112-1.187.337-.33.224-.583.55-.761.974-.176.424-.264.938-.264 1.542 0 .628.09 1.154.268 1.579.182.421.436.74.762.955.33.213.718.319 1.168.319.252 0 .481-.033.688-.097.209-.065.392-.159.549-.282.16-.126.29-.278.392-.457.105-.181.177-.386.217-.614l2.309.014c-.04.418-.162.831-.365 1.237-.2.407-.476.777-.826 1.113-.351.332-.78.597-1.284.794-.502.197-1.077.295-1.726.295-.856 0-1.622-.188-2.3-.563-.673-.378-1.206-.93-1.597-1.653-.39-.723-.586-1.603-.586-2.64 0-1.04.198-1.922.596-2.645.397-.724.934-1.273 1.61-1.649.678-.375 1.436-.563 2.277-.563.572 0 1.101.08 1.588.24a3.85 3.85 0 0 1 1.283.693c.369.301.669.672.9 1.112.231.44.374.944.43 1.51ZM103.229 27v-9.454h6.593V19.4h-4.308v1.94h3.971v1.86h-3.971v1.943h4.308V27h-6.593Zm10.817 0v-9.454h3.905c.708 0 1.319.127 1.833.383.517.252.916.615 1.196 1.09.28.47.42 1.029.42 1.675 0 .655-.143 1.213-.43 1.671a2.741 2.741 0 0 1-1.218 1.043c-.527.237-1.15.356-1.87.356h-2.47v-1.8h2.045c.345 0 .633-.045.863-.134.234-.093.411-.231.531-.416.12-.188.18-.428.18-.72 0-.293-.06-.534-.18-.725a1.083 1.083 0 0 0-.531-.434c-.233-.098-.521-.148-.863-.148h-1.126V27h-2.285Zm5.322-4.321L121.723 27h-2.493l-2.308-4.321h2.446ZM122.653 27v-9.454h6.592V19.4h-4.307v1.94h3.97v1.86h-3.97v1.943h4.307V27h-6.592Zm8.023 0v-9.454h3.906c.708 0 1.319.138 1.833.415.517.274.915.657 1.195 1.15.281.489.421 1.058.421 1.707 0 .653-.144 1.224-.43 1.713a2.88 2.88 0 0 1-1.214 1.131c-.526.268-1.151.402-1.874.402h-2.41v-1.8h1.985c.345 0 .633-.06.863-.18.234-.12.411-.288.531-.504.12-.218.18-.472.18-.761 0-.293-.06-.545-.18-.758a1.208 1.208 0 0 0-.531-.498c-.234-.117-.521-.176-.863-.176h-1.126V27h-2.286Zm9.383 0h-2.455l3.19-9.454h3.042l3.19 9.454h-2.456l-2.221-7.072h-.074L140.059 27Zm-.327-3.72h5.133v1.735h-5.133v-1.736Zm10.597-5.735V27h-2.285v-9.454h2.285ZM151.763 27v-9.454h3.906c.708 0 1.319.127 1.833.383.517.252.915.615 1.195 1.09.28.47.42 1.029.42 1.675 0 .655-.143 1.213-.429 1.671a2.738 2.738 0 0 1-1.219 1.043c-.526.237-1.149.356-1.869.356h-2.47v-1.8h2.045c.345 0 .632-.045.863-.134.234-.093.411-.231.531-.416.12-.188.18-.428.18-.72 0-.293-.06-.534-.18-.725a1.083 1.083 0 0 0-.531-.434c-.234-.098-.521-.148-.863-.148h-1.126V27h-2.286Zm5.323-4.321L159.441 27h-2.493l-2.309-4.321h2.447Z" fill="#FAFF00"/></svg>