<svg width="18" height="18" fill="none" xmlns="http://www.w3.org/2000/svg"><g id="basic / phone"><path id="phone" d="M16.064 16.5c-7.998.011-14.069-6.132-14.06-14.06 0-.518.42-.94.937-.94h2.475c.464 0 .86.341.927.8a11.64 11.64 0 0 0 .953 3.185l.096.208a.663.663 0 0 1-.216.818c-.766.547-1.06 1.649-.462 2.508a11.077 11.077 0 0 0 2.771 2.771c.86.597 1.961.305 2.508-.462.186-.26.53-.35.819-.216l.207.096c1.01.468 2.083.789 3.184.952.46.068.8.463.8.928v2.475c0 .517-.42.937-.938.937Z" fill="#fff"/></g></svg>