<svg width="19" height="18" fill="none" xmlns="http://www.w3.org/2000/svg"><g id="pinterest-4 1" clip-path="url('#clip0_7_197')"><path id="Vector" d="M2.038 6.461c0-.756.158-1.506.477-2.25a7.143 7.143 0 0 1 1.368-2.069C4.476 1.507 5.256.99 6.223.594 7.188.198 8.258 0 9.433 0c1.908 0 3.474.589 4.698 1.764 1.223 1.175 1.835 2.561 1.835 4.157 0 2.052-.518 3.747-1.556 5.084-1.039 1.337-2.38 2.007-4.023 2.007a3.19 3.19 0 0 1-1.52-.378c-.474-.252-.807-.558-1-.918l-.72 2.844a5.51 5.51 0 0 1-.233.692 7.733 7.733 0 0 1-.315.675c-.113.216-.228.42-.342.612a11.93 11.93 0 0 1-.639.963 5.987 5.987 0 0 1-.234.297l-.108.144a.133.133 0 0 1-.144.054.13.13 0 0 1-.108-.108c0-.013-.009-.095-.027-.252a18.818 18.818 0 0 1-.108-1.17c-.018-.275-.023-.543-.018-.8.006-.258.024-.544.054-.855.031-.312.076-.6.135-.864.132-.564.576-2.442 1.332-5.633a3.028 3.028 0 0 1-.234-.693 3.22 3.22 0 0 1-.09-.657l-.018-.27c0-.768.195-1.407.585-1.916.39-.51.86-.765 1.413-.765.444 0 .788.147 1.035.44.246.294.368.663.368 1.107 0 .276-.05.616-.152 1.017-.103.401-.238.864-.405 1.386a15.14 15.14 0 0 0-.36 1.269c-.12.54-.015 1.007.315 1.403.329.396.77.594 1.322.594.949 0 1.732-.536 2.349-1.61.617-1.075.927-2.372.927-3.897 0-1.164-.378-2.114-1.134-2.852-.756-.738-1.812-1.107-3.167-1.107-1.512 0-2.74.486-3.68 1.458-.942.972-1.413 2.136-1.413 3.491 0 .805.228 1.481.683 2.034.157.18.204.372.144.576-.023.059-.059.198-.108.414a3.726 3.726 0 0 1-.108.413c-.023.132-.084.22-.18.261a.407.407 0 0 1-.323-.009c-.708-.287-1.239-.782-1.593-1.484-.355-.702-.531-1.521-.531-2.457Z" fill="#344265"/></g><defs><clipPath id="clip0_7_197"><path fill="#fff" transform="translate(.002)" d="M0 0h18v18H0z"/></clipPath></defs></svg>