<svg width="18" height="18" fill="none" xmlns="http://www.w3.org/2000/svg"><g clip-path="url('#clip0_2_158')" id="Settings icon"><g id="Group"><g id="Group_2"><path id="Vector" d="M16.02 7.47c-.18-.81-.54-1.62-.99-2.34l.9-1.89-1.26-1.26-1.89.9c-.72-.45-1.44-.72-2.25-.9L9.9 0H8.1l-.72 1.98c-.81.18-1.53.54-2.25.99l-1.89-.9-1.26 1.17.9 1.89c-.45.72-.72 1.44-.9 2.25L0 8.1v1.8l1.98.72c.18.81.54 1.62.9 2.25l-.9 1.89 1.26 1.26 1.89-.9c.72.45 1.44.81 2.25.99L8.1 18h1.8l.72-1.98c.27-.09.63-.18.9-.27l-1.44-1.44C6.66 14.94 3.6 12.42 3.6 9c0-2.97 2.43-5.4 5.4-5.4 3.33 0 5.85 2.97 5.31 6.12l1.53 1.53c.09-.27.18-.45.18-.72L18 9.9V8.1l-1.98-.63Z" fill="#344265"/></g></g><g id="Group_3"><g id="Group_4"><path id="Vector_2" d="m17.64 15.66-5.31-5.31c1.26-2.79-1.35-5.76-4.23-4.95l1.62 1.62c.72.72.72 1.89 0 2.52-.63.72-1.89.72-2.52 0L5.58 8.01c-.81 2.52 1.8 5.4 4.77 4.23l5.31 5.31c.54.54 1.35.54 1.89 0 .54-.45.54-1.35.09-1.89Z" fill="#344265"/></g></g></g><defs><clipPath id="clip0_2_158"><rect width="18" height="18" rx="9" fill="#fff"/></clipPath></defs></svg>