<svg width="19" height="18" fill="none" xmlns="http://www.w3.org/2000/svg"><g id="youtube"><path id="Combined Shape" d="M9.06 2.248h.1c.924.004 5.61.038 6.873.377.775.208 1.385.82 1.592 1.597.113.427.193.995.248 1.578l.011.117c.009.098.017.195.024.293l.009.116c.074 1.029.082 1.991.083 2.202v.085c0 .218-.01 1.246-.092 2.318l-.009.117-.01.117c-.055.644-.14 1.284-.264 1.753a2.258 2.258 0 0 1-1.592 1.597c-1.305.351-6.265.376-6.953.378h-.159c-.347-.001-1.786-.008-3.293-.06l-.192-.007c-.033 0-.065-.002-.097-.003l-.193-.008-.192-.008c-1.248-.055-2.438-.145-2.986-.292a2.258 2.258 0 0 1-1.591-1.597c-.126-.47-.21-1.109-.265-1.753l-.01-.117-.009-.117A35.324 35.324 0 0 1 .001 8.64V8.5c.001-.241.01-1.078.071-2l.008-.116.004-.059.009-.116c.007-.098.015-.195.024-.293l.01-.117c.056-.583.136-1.15.25-1.578a2.258 2.258 0 0 1 1.591-1.597c.548-.147 1.738-.237 2.986-.291l.192-.009.193-.007.097-.004.192-.007c1.41-.048 2.762-.057 3.214-.059H9.059ZM7.2 5.861v5.419l4.677-2.71-4.676-2.71Z" fill="#344265"/></g></svg>